M48
;Layer_Color=9474304
;FILE_FORMAT=4:4
METRIC,LZ
;TYPE=PLATED
T1F00S00C0.7112
T2F00S00C0.8000
T3F00S00C1.0200
T4F00S00C1.1000
T5F00S00C1.4000
T6F00S00C3.0000
T7F00S00C3.1800
%
T01
X-00147Y-00687
X-0011Y-00682
X-0010511Y-00649003
X-0018311Y-00623503
X0009564Y-00505856
X00116Y-00494
X001075Y-00477499
X0015426Y-00410197
X0007626Y-00384697
X000951Y-002361
X001051Y-002186
X-001246Y-002821
X-001346Y-002996
X-0018311Y-00365803
X-0010511Y-00391303
X-001246Y-005398
X-001346Y-005573
X-003966Y-003818
X-0034809Y-00315597
X-0042609Y-00290097
X-004066Y-003993
Y-0014
X-0042609Y-00032397
X-0040671Y0011877
X-003966Y001336
X-0018311Y00149597
X-0010511Y00124097
X-001246Y-000244
X-001346Y-000419
X-0018311Y-00108103
X-0010511Y-00133603
X-003966Y-001241
X-0034809Y-00057897
X0007561Y-00126897
X0015361Y-00152397
X0009515Y000221
X0010515Y000396
X0015366Y00105803
X0007566Y00131303
X00434Y002671
X0045725Y00327
X0029Y00293
Y00267
Y00216
X00196
Y00244
Y00262
X00093Y00284
X00107Y00308
X0012Y00318
X000954Y004
X001054Y004175
X001154Y00435
X001534Y004832
X000759Y005082
X-0027Y0049
X-0034809Y00457503
X-003901Y004083
X-003966Y003913
X-00205Y00424
X-001246Y002333
X-001346Y002158
X-0034809Y00199803
X-0042609Y00225303
X-004066Y003738
X-0042609Y00483003
X0009075Y006335
X0011075
X0013075
X0015075
Y006535
Y006735
X0013075
Y006535
X0011075
Y006735
X0009075
X0009075Y006535
X0009075Y006935
X0011075
X0013075
X0015075
T02
X-0003045Y006091
Y006341
X0004205
Y006091
T03
X0040285Y-001895
Y-001641
Y-001387
Y-001133
Y-000879
Y-000625
Y-000371
Y-000117
Y000137
Y000391
Y000645
Y000899
Y001153
Y001407
Y001661
X0055525
Y001407
Y001153
Y000899
Y000645
Y000391
Y000137
Y-000117
Y-000371
Y-000625
Y-000879
Y-001133
Y-001387
Y-001641
Y-001895
Y001915
Y002169
Y002423
Y002677
Y002931
X0040285
Y002677
Y002423
Y002169
Y001915
T04
X00401Y-004468
Y-004214
Y-00396
Y-003706
Y-003452
Y-003198
Y-002944
Y-00269
X003706Y-0026895
Y-0029435
Y-0031975
Y-0034515
Y-0037055
Y-0039595
Y-0042135
Y-0044675
X0018835Y-004532
Y-004278
Y-004786
Y-00504
Y-005294
Y-005548
Y-005802
Y-006056
X0001165
Y-005802
Y-005548
Y-005294
Y-00504
Y-004786
Y-004532
Y-004278
X00011Y-003478
Y-003224
Y-00297
Y-002716
Y-002462
Y-002208
X001877
Y-002462
Y-002716
Y-00297
Y-003224
Y-003478
X-000405Y-003482
Y-003228
Y-002974
Y-00272
Y-002466
Y-002212
X-002172
Y-002466
Y-00272
Y-002974
Y-003228
Y-003482
Y-004281
Y-004535
Y-004789
Y-005043
Y-005297
Y-005551
Y-005805
Y-006059
X-000405
Y-005805
Y-005551
Y-005297
Y-005043
Y-004789
Y-004535
Y-004281
X-00314Y-004348
Y-004094
Y-00384
Y-003586
Y-003332
Y-002533
Y-002279
Y-004602
Y-004856
Y-00511
X-004907
Y-004856
Y-004602
Y-004348
Y-004094
Y-00384
Y-003586
Y-003332
X-005435Y-003348
Y-003602
Y-003856
Y-00411
X-005785
Y-003856
Y-003602
Y-003348
Y-003094
Y-00284
Y-002586
Y-002332
X-005435
Y-002586
Y-00284
Y-003094
X-004907Y-002533
Y-002279
Y-002025
Y-001771
Y-001517
Y-001263
Y-001009
Y-000755
X-005435Y-000808
Y-000554
Y-0003
X-005785
Y-000554
Y-000808
Y-001062
Y-001316
Y-00157
Y-001824
Y-002078
X-005435
Y-001824
Y-00157
Y-001316
Y-001062
Y00024
Y000494
Y000748
Y001002
Y001256
Y00151
Y001764
X-005785
Y00151
Y001256
Y001002
Y000748
Y000494
Y00024
X-004907Y000298
Y000044
Y000552
Y000806
Y00106
Y001314
Y001568
Y001822
X-00314
Y001568
Y001314
Y00106
Y000806
Y000552
Y000298
Y000044
Y-000755
Y-001009
Y-001263
Y-001517
Y-001771
Y-002025
X-002172Y-001958
Y-001704
Y-000905
Y-000651
Y-000397
Y-000143
Y000111
Y000365
Y000619
Y000873
Y001672
X-000405
Y000873
Y000619
Y000365
Y000111
Y-000143
Y-000397
Y-000651
Y-000905
Y-001704
Y-001958
X00011Y-001954
Y-0017
X0001105Y-000896
Y-000642
Y-000388
Y-000134
Y00012
Y000374
Y000628
Y000882
X0018775
Y000628
Y000374
Y00012
Y-000134
Y-000388
Y-000642
Y-000896
X001877Y-0017
Y-001954
X003065Y-0013895
Y-0011355
Y-0008815
Y-0006275
Y-0003735
Y-0001195
Y0001345
Y0003885
Y0006425
Y0008965
Y0011505
Y0014045
Y0016585
X006515Y001656
Y001402
Y001148
Y000894
Y00064
Y000386
Y000132
Y-000122
Y-000376
Y-00063
Y-000884
Y-001138
Y-001392
Y-001646
Y-0019
Y00191
X006521Y00237
X006775
X003065Y0019125
X00188Y002883
Y003137
Y003391
Y003645
Y003899
Y004153
Y004407
Y004661
X000113
Y004407
Y004153
Y003899
Y003645
Y003391
Y003137
Y002883
X-000405Y002942
Y003196
Y00345
Y002688
Y002434
Y00218
Y001926
X-002172
Y00218
Y002434
Y002688
Y002942
Y003196
Y00345
X-00314Y003383
Y003637
Y003891
Y004145
Y004399
Y003129
Y002875
Y002621
X-004907
Y002875
Y003129
Y003383
Y003637
Y003891
Y004145
Y004399
X-005435Y00405
Y003796
Y003542
Y003288
Y003034
Y00278
Y002526
Y002272
Y002018
X-005785
Y002272
Y002526
Y00278
Y003034
Y003288
Y003542
Y003796
Y00405
T05
X-0011425Y006021
Y006435
T06
X00289Y-0058
X-00289
X00289Y0058
X-00289
T07
X-0011425Y006855
M30
