G04 Layer_Color=32896*
%FSLAX44Y44*%
%MOMM*%
G71*
G01*
G75*
%ADD21C,0.6000*%
%ADD37C,0.2000*%
G36*
X-116824Y726456D02*
X-116700Y726404D01*
X-116630Y726316D01*
X-116560Y726245D01*
X-116525Y726158D01*
X-116507Y726070D01*
Y726017D01*
Y725999D01*
X-116525Y725841D01*
X-116578Y725718D01*
X-116665Y725648D01*
X-116753Y725577D01*
X-116824Y725542D01*
X-116911Y725525D01*
X-120181D01*
X-119425Y722203D01*
X-118880D01*
X-118722Y722185D01*
X-118599Y722132D01*
X-118528Y722045D01*
X-118458Y721974D01*
X-118423Y721886D01*
X-118406Y721798D01*
Y721746D01*
Y721728D01*
X-118423Y721570D01*
X-118476Y721447D01*
X-118546Y721377D01*
X-118634Y721306D01*
X-118722Y721271D01*
X-118792Y721254D01*
X-119214D01*
X-118406Y717580D01*
Y717492D01*
Y717475D01*
Y717457D01*
X-118423Y717299D01*
X-118476Y717193D01*
X-118564Y717105D01*
X-118652Y717053D01*
X-118722Y717018D01*
X-118810Y717000D01*
X-118880D01*
X-119003Y717018D01*
X-119109Y717053D01*
X-119179Y717123D01*
X-119249Y717193D01*
X-119319Y717316D01*
X-119337Y717352D01*
Y717369D01*
X-120198Y721254D01*
X-120778D01*
X-120936Y721271D01*
X-121060Y721324D01*
X-121130Y721412D01*
X-121200Y721500D01*
X-121235Y721570D01*
X-121253Y721658D01*
Y721711D01*
Y721728D01*
X-121235Y721886D01*
X-121183Y722009D01*
X-121095Y722080D01*
X-121024Y722150D01*
X-120936Y722185D01*
X-120849Y722203D01*
X-120409D01*
X-121235Y725894D01*
X-121253Y725982D01*
Y725999D01*
X-121235Y726158D01*
X-121165Y726281D01*
X-121095Y726351D01*
X-121007Y726421D01*
X-120919Y726456D01*
X-120849Y726474D01*
X-116982D01*
X-116824Y726456D01*
D02*
G37*
G36*
X-108299D02*
X-108176Y726404D01*
X-108105Y726316D01*
X-108035Y726245D01*
X-108000Y726158D01*
X-107982Y726070D01*
Y726017D01*
Y725999D01*
X-108000Y725894D01*
X-108035Y725806D01*
X-108053Y725736D01*
X-108070Y725718D01*
X-110724Y721728D01*
X-108070Y717738D01*
X-108018Y717650D01*
X-108000Y717545D01*
X-107982Y717492D01*
Y717457D01*
X-108000Y717299D01*
X-108053Y717193D01*
X-108141Y717105D01*
X-108229Y717053D01*
X-108299Y717018D01*
X-108387Y717000D01*
X-108457D01*
X-108545Y717018D01*
X-108633Y717035D01*
X-108756Y717105D01*
X-108844Y717158D01*
X-108861Y717193D01*
X-111305Y720867D01*
X-113748Y717193D01*
X-113800Y717123D01*
X-113871Y717088D01*
X-114011Y717018D01*
X-114117Y717000D01*
X-114152D01*
X-114310Y717018D01*
X-114433Y717070D01*
X-114503Y717141D01*
X-114574Y717228D01*
X-114609Y717316D01*
X-114627Y717387D01*
Y717439D01*
Y717457D01*
X-114609Y717562D01*
X-114591Y717650D01*
X-114556Y717721D01*
X-114539Y717738D01*
X-111884Y721728D01*
X-114539Y725718D01*
X-114591Y725806D01*
X-114609Y725911D01*
X-114627Y725982D01*
Y725999D01*
X-114609Y726158D01*
X-114556Y726281D01*
X-114468Y726351D01*
X-114398Y726421D01*
X-114310Y726456D01*
X-114222Y726474D01*
X-114064D01*
X-113976Y726439D01*
X-113853Y726368D01*
X-113783Y726298D01*
X-113748Y726281D01*
Y726263D01*
X-111305Y722589D01*
X-108861Y726263D01*
X-108808Y726333D01*
X-108738Y726386D01*
X-108615Y726456D01*
X-108510Y726474D01*
X-108457D01*
X-108299Y726456D01*
D02*
G37*
D21*
X-165000Y590000D02*
Y610000D01*
X-175000Y600000D02*
X-155000D01*
X-175000Y644000D02*
X-155000D01*
D37*
X-80269Y559100D02*
Y711600D01*
X-146769D02*
X-80269D01*
X-146769Y559100D02*
Y711600D01*
Y559100D02*
X-80269D01*
M02*
