G04 Layer_Color=16711935*
%FSLAX44Y44*%
%MOMM*%
G71*
G01*
G75*
%ADD44C,2.8032*%
%ADD45C,1.6032*%
%ADD46P,1.7353X8X112.5*%
%ADD47C,2.2032*%
%ADD48R,2.2032X2.2032*%
%ADD49C,2.0032*%
%ADD50P,2.1683X8X112.5*%
%ADD51C,2.0232*%
%ADD52R,2.2032X2.2032*%
%ADD53C,4.8832*%
%ADD54C,1.4732*%
%ADD55C,5.2032*%
D44*
X-114250Y643500D02*
D03*
Y602100D02*
D03*
D45*
X-30450Y634100D02*
D03*
X42050D02*
D03*
D46*
X-30450Y609100D02*
D03*
X42050D02*
D03*
D47*
X401000Y-269000D02*
D03*
Y-319800D02*
D03*
Y-396000D02*
D03*
Y-421400D02*
D03*
Y-370600D02*
D03*
Y-345200D02*
D03*
Y-294400D02*
D03*
X370600Y-268950D02*
D03*
Y-319750D02*
D03*
Y-395950D02*
D03*
Y-421350D02*
D03*
Y-370550D02*
D03*
Y-345150D02*
D03*
Y-294350D02*
D03*
X651500Y-88400D02*
D03*
Y-63000D02*
D03*
Y38600D02*
D03*
Y89400D02*
D03*
Y114800D02*
D03*
Y165600D02*
D03*
Y140200D02*
D03*
Y64000D02*
D03*
Y13200D02*
D03*
Y-37600D02*
D03*
Y-12200D02*
D03*
Y-113800D02*
D03*
Y-139200D02*
D03*
Y-164600D02*
D03*
Y-190000D02*
D03*
X652100Y237000D02*
D03*
X306500Y-138950D02*
D03*
Y-113550D02*
D03*
Y-11950D02*
D03*
Y-37350D02*
D03*
Y13450D02*
D03*
Y64250D02*
D03*
Y140450D02*
D03*
Y165850D02*
D03*
Y115050D02*
D03*
Y89650D02*
D03*
Y38850D02*
D03*
Y-62750D02*
D03*
Y-88150D02*
D03*
D48*
X401000Y-446800D02*
D03*
X370600Y-446750D02*
D03*
X651500Y191000D02*
D03*
X306500Y191250D02*
D03*
D49*
X-314000Y-333200D02*
D03*
Y-358600D02*
D03*
Y-409400D02*
D03*
Y-485600D02*
D03*
Y-460200D02*
D03*
Y-434800D02*
D03*
Y-384000D02*
D03*
X-217200Y167200D02*
D03*
Y192600D02*
D03*
Y243400D02*
D03*
Y319600D02*
D03*
Y294200D02*
D03*
Y268800D02*
D03*
Y218000D02*
D03*
X188350Y-427800D02*
D03*
Y-453200D02*
D03*
Y-504000D02*
D03*
Y-580200D02*
D03*
Y-554800D02*
D03*
Y-529400D02*
D03*
Y-478600D02*
D03*
X-490700Y-511000D02*
D03*
Y-485600D02*
D03*
Y-434800D02*
D03*
Y-358600D02*
D03*
Y-384000D02*
D03*
Y-409400D02*
D03*
Y-460200D02*
D03*
X-40500Y345000D02*
D03*
Y319600D02*
D03*
Y268800D02*
D03*
Y192600D02*
D03*
Y218000D02*
D03*
Y243400D02*
D03*
Y294200D02*
D03*
X11650Y-605600D02*
D03*
Y-580200D02*
D03*
Y-529400D02*
D03*
Y-453200D02*
D03*
Y-478600D02*
D03*
Y-504000D02*
D03*
Y-554800D02*
D03*
X-314000Y-75500D02*
D03*
Y-100900D02*
D03*
Y-151700D02*
D03*
Y-227900D02*
D03*
Y-202500D02*
D03*
Y-177100D02*
D03*
Y-126300D02*
D03*
X-217200Y-90500D02*
D03*
Y-65100D02*
D03*
Y-14300D02*
D03*
Y61900D02*
D03*
Y36500D02*
D03*
Y11100D02*
D03*
Y-39700D02*
D03*
X187700Y-170000D02*
D03*
Y-195400D02*
D03*
Y-246200D02*
D03*
Y-322400D02*
D03*
Y-297000D02*
D03*
Y-271600D02*
D03*
Y-220800D02*
D03*
X-490700Y-253300D02*
D03*
Y-227900D02*
D03*
Y-177100D02*
D03*
Y-100900D02*
D03*
Y-126300D02*
D03*
Y-151700D02*
D03*
Y-202500D02*
D03*
X-40500Y87300D02*
D03*
Y61900D02*
D03*
Y11100D02*
D03*
Y-65100D02*
D03*
Y-39700D02*
D03*
Y-14300D02*
D03*
Y36500D02*
D03*
X11000Y-347800D02*
D03*
Y-322400D02*
D03*
Y-271600D02*
D03*
Y-195400D02*
D03*
Y-220800D02*
D03*
Y-246200D02*
D03*
Y-297000D02*
D03*
X-314000Y182200D02*
D03*
Y156800D02*
D03*
Y106000D02*
D03*
Y29800D02*
D03*
Y55200D02*
D03*
Y80600D02*
D03*
Y131400D02*
D03*
X-217200Y-348200D02*
D03*
Y-322800D02*
D03*
Y-272000D02*
D03*
Y-195800D02*
D03*
Y-221200D02*
D03*
Y-246600D02*
D03*
Y-297400D02*
D03*
X187750Y88200D02*
D03*
Y62800D02*
D03*
Y12000D02*
D03*
Y-64200D02*
D03*
Y-38800D02*
D03*
Y-13400D02*
D03*
Y37400D02*
D03*
X-490700Y4400D02*
D03*
Y29800D02*
D03*
Y80600D02*
D03*
Y156800D02*
D03*
Y131400D02*
D03*
Y106000D02*
D03*
Y55200D02*
D03*
X-40500Y-170400D02*
D03*
Y-195800D02*
D03*
Y-246600D02*
D03*
Y-322800D02*
D03*
Y-297400D02*
D03*
Y-272000D02*
D03*
Y-221200D02*
D03*
X11050Y-89600D02*
D03*
Y-64200D02*
D03*
Y-13400D02*
D03*
Y62800D02*
D03*
Y37400D02*
D03*
Y12000D02*
D03*
Y-38800D02*
D03*
X-314000Y439900D02*
D03*
Y414500D02*
D03*
Y363700D02*
D03*
Y287500D02*
D03*
Y312900D02*
D03*
Y338300D02*
D03*
Y389100D02*
D03*
X-217200Y-605900D02*
D03*
Y-580500D02*
D03*
Y-529700D02*
D03*
Y-453500D02*
D03*
Y-478900D02*
D03*
Y-504300D02*
D03*
Y-555100D02*
D03*
X188000Y466100D02*
D03*
Y440700D02*
D03*
Y389900D02*
D03*
Y313700D02*
D03*
Y339100D02*
D03*
Y364500D02*
D03*
Y415300D02*
D03*
X-490700Y262100D02*
D03*
Y287500D02*
D03*
Y338300D02*
D03*
Y414500D02*
D03*
Y389100D02*
D03*
Y363700D02*
D03*
Y312900D02*
D03*
X-40500Y-428100D02*
D03*
Y-453500D02*
D03*
Y-504300D02*
D03*
Y-580500D02*
D03*
Y-555100D02*
D03*
Y-529700D02*
D03*
Y-478900D02*
D03*
X11300Y288300D02*
D03*
Y313700D02*
D03*
Y364500D02*
D03*
Y440700D02*
D03*
Y415300D02*
D03*
Y389900D02*
D03*
Y339100D02*
D03*
X-578500Y-30000D02*
D03*
Y-55400D02*
D03*
Y-80800D02*
D03*
Y-106200D02*
D03*
Y-131600D02*
D03*
Y-157000D02*
D03*
Y-385600D02*
D03*
Y-360200D02*
D03*
Y-334800D02*
D03*
Y-309400D02*
D03*
Y-284000D02*
D03*
Y-258600D02*
D03*
Y-233200D02*
D03*
Y-207800D02*
D03*
Y-182400D02*
D03*
X-543500Y-30000D02*
D03*
Y-55400D02*
D03*
Y-80800D02*
D03*
Y-106200D02*
D03*
Y-131600D02*
D03*
Y-157000D02*
D03*
Y-385600D02*
D03*
Y-360200D02*
D03*
Y-334800D02*
D03*
Y-309400D02*
D03*
Y-284000D02*
D03*
Y-258600D02*
D03*
Y-233200D02*
D03*
Y-207800D02*
D03*
Y-182400D02*
D03*
Y405000D02*
D03*
Y379600D02*
D03*
Y354200D02*
D03*
Y328800D02*
D03*
Y303400D02*
D03*
Y278000D02*
D03*
Y49400D02*
D03*
Y74800D02*
D03*
Y100200D02*
D03*
Y125600D02*
D03*
Y151000D02*
D03*
Y176400D02*
D03*
Y201800D02*
D03*
Y227200D02*
D03*
Y252600D02*
D03*
X-578500Y405000D02*
D03*
Y379600D02*
D03*
Y354200D02*
D03*
Y328800D02*
D03*
Y303400D02*
D03*
Y278000D02*
D03*
Y49400D02*
D03*
Y74800D02*
D03*
Y100200D02*
D03*
Y125600D02*
D03*
Y151000D02*
D03*
Y176400D02*
D03*
Y201800D02*
D03*
Y227200D02*
D03*
Y252600D02*
D03*
D50*
X-314000Y-511000D02*
D03*
X-217200Y345000D02*
D03*
X188350Y-605600D02*
D03*
X-490700Y-333200D02*
D03*
X-40500Y167200D02*
D03*
X11650Y-427800D02*
D03*
X-314000Y-253300D02*
D03*
X-217200Y87300D02*
D03*
X187700Y-347800D02*
D03*
X-490700Y-75500D02*
D03*
X-40500Y-90500D02*
D03*
X11000Y-170000D02*
D03*
X-314000Y4400D02*
D03*
X-217200Y-170400D02*
D03*
X187750Y-89600D02*
D03*
X-490700Y182200D02*
D03*
X-40500Y-348200D02*
D03*
X11050Y88200D02*
D03*
X-314000Y262100D02*
D03*
X-217200Y-428100D02*
D03*
X188000Y288300D02*
D03*
X-490700Y439900D02*
D03*
X-40500Y-605900D02*
D03*
X11300Y466100D02*
D03*
X-578500Y-411000D02*
D03*
X-543500D02*
D03*
Y24000D02*
D03*
X-578500D02*
D03*
D51*
X555250Y-189500D02*
D03*
Y-164100D02*
D03*
Y-138700D02*
D03*
Y-113300D02*
D03*
Y-87900D02*
D03*
Y-62500D02*
D03*
Y-37100D02*
D03*
Y-11700D02*
D03*
Y13700D02*
D03*
Y293100D02*
D03*
Y267700D02*
D03*
Y242300D02*
D03*
Y216900D02*
D03*
Y191500D02*
D03*
Y166100D02*
D03*
Y140700D02*
D03*
Y115300D02*
D03*
Y89900D02*
D03*
Y64500D02*
D03*
Y39100D02*
D03*
X402850Y-189500D02*
D03*
Y-164100D02*
D03*
Y-138700D02*
D03*
Y-113300D02*
D03*
Y-87900D02*
D03*
Y-62500D02*
D03*
Y-37100D02*
D03*
Y-11700D02*
D03*
Y13700D02*
D03*
Y293100D02*
D03*
Y267700D02*
D03*
Y242300D02*
D03*
Y216900D02*
D03*
Y191500D02*
D03*
Y166100D02*
D03*
Y140700D02*
D03*
Y115300D02*
D03*
Y89900D02*
D03*
Y64500D02*
D03*
Y39100D02*
D03*
D52*
X677500Y237000D02*
D03*
D53*
X-114250Y685500D02*
D03*
D54*
X130750Y633500D02*
D03*
X-270000Y490000D02*
D03*
X-406600Y-140000D02*
D03*
X-406710Y118770D02*
D03*
X-406600Y373800D02*
D03*
X-205000Y424000D02*
D03*
X196000Y216000D02*
D03*
Y244000D02*
D03*
X93000Y284000D02*
D03*
X107000Y308000D02*
D03*
X-147000Y-687000D02*
D03*
X-110000Y-682000D02*
D03*
X95640Y-505856D02*
D03*
X-390100Y408300D02*
D03*
X116000Y-494000D02*
D03*
X105150Y39600D02*
D03*
X95150Y22100D02*
D03*
X153660Y105803D02*
D03*
X-396600Y133600D02*
D03*
X-105110Y124097D02*
D03*
X-124600Y233300D02*
D03*
X-406600Y-399300D02*
D03*
X-396600Y-381800D02*
D03*
Y-124100D02*
D03*
Y391300D02*
D03*
X-124600Y-539800D02*
D03*
Y-282100D02*
D03*
X-134600Y-299600D02*
D03*
X-124600Y-24400D02*
D03*
X-134600Y-41900D02*
D03*
Y215800D02*
D03*
X107500Y-477499D02*
D03*
X105100Y-218600D02*
D03*
X95100Y-236100D02*
D03*
X75660Y131303D02*
D03*
X-183110Y-365803D02*
D03*
X-348090Y199803D02*
D03*
X-183110Y-623503D02*
D03*
X-348090Y457503D02*
D03*
X-183110Y-108103D02*
D03*
X-348090Y-57897D02*
D03*
X154260Y-410197D02*
D03*
X-183110Y149597D02*
D03*
X-348090Y-315597D02*
D03*
X153610Y-152397D02*
D03*
X-105110Y-391303D02*
D03*
X-426090Y225303D02*
D03*
X-105110Y-649003D02*
D03*
X-426090Y483003D02*
D03*
X-105110Y-133603D02*
D03*
X-426090Y-32397D02*
D03*
X76260Y-384697D02*
D03*
X-426090Y-290097D02*
D03*
X75610Y-126897D02*
D03*
X95400Y400000D02*
D03*
X457250Y327000D02*
D03*
X90750Y633500D02*
D03*
X110750D02*
D03*
X90750Y653500D02*
D03*
X130750Y673500D02*
D03*
Y693500D02*
D03*
X150750D02*
D03*
Y673500D02*
D03*
X130750Y653500D02*
D03*
X150750Y633500D02*
D03*
Y653500D02*
D03*
X110750D02*
D03*
Y673500D02*
D03*
Y693500D02*
D03*
X90750D02*
D03*
Y673500D02*
D03*
X105400Y417500D02*
D03*
X115400Y435000D02*
D03*
X153400Y483200D02*
D03*
X75900Y508200D02*
D03*
X-134600Y-557300D02*
D03*
X196000Y262000D02*
D03*
X120000Y318000D02*
D03*
X290000Y216000D02*
D03*
Y267000D02*
D03*
Y293000D02*
D03*
X434000Y267100D02*
D03*
D55*
X-289000Y580000D02*
D03*
X289000D02*
D03*
X-289000Y-580000D02*
D03*
X289000D02*
D03*
M02*
